<?xml version="1.0" standalone="no"?>
<!DOCTYPE svg PUBLIC "-//W3C//DTD SVG 20010904//EN"
 "http://www.w3.org/TR/2001/REC-SVG-20010904/DTD/svg10.dtd">
<svg version="1.0" xmlns="http://www.w3.org/2000/svg"
 width="512.000000pt" height="512.000000pt" viewBox="0 0 512.000000 512.000000"
 preserveAspectRatio="xMidYMid meet">

<g transform="translate(0.000000,512.000000) scale(0.100000,-0.100000)"
fill="#000000" stroke="none">
<path d="M0 2560 l0 -2560 2560 0 2560 0 0 2560 0 2560 -2560 0 -2560 0 0
-2560z m4761 2023 c23 -29 40 -55 38 -57 -2 -2 -60 -11 -129 -21 -154 -21
-369 -59 -515 -91 -131 -29 -465 -121 -485 -134 -12 -7 15 -99 154 -527 93
-285 196 -602 229 -705 36 -111 66 -188 73 -188 7 0 66 15 131 34 193 55 453
109 636 131 l57 7 0 -36 c0 -33 -2 -36 -29 -36 -51 0 -327 -50 -474 -86 -142
-35 -307 -82 -307 -88 0 -7 41 -123 50 -141 6 -11 58 -166 116 -345 58 -179
164 -503 235 -721 l129 -397 108 30 c59 16 122 32 140 35 l32 6 0 -100 0 -100
-107 -28 c-256 -66 -541 -193 -768 -342 -138 -91 -224 -161 -348 -282 l-87
-86 432 -5 433 -5 -95 -47 c-52 -25 -133 -57 -180 -70 l-85 -23 -1525 -3
c-1073 -2 -1549 0 -1605 8 -115 16 -216 45 -293 85 l-67 34 118 1 c116 0 118
0 100 19 -10 11 -29 42 -43 68 -80 156 -168 315 -200 363 -91 134 -196 185
-255 125 -49 -48 -20 -134 55 -165 16 -7 30 -14 30 -16 0 -9 -65 -134 -70
-134 -19 0 -74 46 -97 82 -40 64 -82 169 -83 206 -1 109 143 217 263 197 87
-15 188 -84 247 -169 15 -23 71 -117 125 -211 53 -93 99 -172 101 -174 1 -2
31 53 66 123 34 69 67 126 72 126 11 0 126 -51 126 -57 0 -2 -25 -54 -56 -116
-31 -61 -72 -147 -90 -190 l-33 -78 130 3 131 3 122 240 c67 132 156 296 197
365 42 69 87 145 99 170 12 25 33 56 45 70 l23 25 -590 428 c-325 236 -596
431 -603 433 -15 6 -203 -270 -321 -470 -46 -77 -88 -148 -93 -156 -7 -10 -10
39 -10 145 l-1 159 57 91 c145 231 357 520 541 735 138 162 542 567 702 703
892 756 1974 1250 3105 1416 137 21 127 24 196 -66z m143 -357 c25 -10 35 -22
40 -46 3 -18 6 -145 6 -282 l0 -250 -60 -115 c-33 -64 -60 -120 -60 -124 0 -5
27 -6 60 -2 l60 6 0 -75 0 -75 -142 -17 c-78 -9 -145 -13 -149 -9 -4 4 -10 37
-13 73 l-6 65 75 140 c166 308 206 410 191 490 -15 80 -99 113 -151 60 -21
-20 -25 -34 -25 -84 0 -68 5 -64 -96 -76 -60 -6 -64 -1 -64 73 0 153 101 262
242 262 32 0 74 -6 92 -14z m-474 -35 c0 -8 28 -250 86 -749 14 -123 24 -225
22 -227 -2 -1 -35 -6 -75 -10 l-72 -7 -5 34 c-3 18 -22 168 -41 333 -19 165
-38 317 -41 339 l-6 39 -59 -7 c-66 -6 -64 -8 -73 61 -6 42 -5 43 31 58 48 20
92 61 109 102 12 28 19 32 61 36 27 2 51 4 56 5 4 1 7 -2 7 -7z m-3412 -2780
c147 -73 282 -144 301 -158 43 -33 81 -114 81 -174 0 -89 -65 -179 -149 -208
-63 -21 -186 -5 -198 25 -2 6 10 40 27 74 27 53 34 61 53 56 12 -3 31 -9 42
-12 29 -7 75 31 75 62 0 45 -19 63 -110 109 -100 50 -114 54 -105 25 10 -30
-13 -97 -45 -134 -68 -77 -154 -76 -317 3 -137 67 -165 88 -197 153 -33 66
-34 126 -2 194 40 86 110 125 214 121 57 -3 82 -13 330 -136z"/>
<path d="M3570 4242 c-153 -49 -489 -185 -680 -275 -269 -125 -660 -356 -913
-538 -6 -4 657 -933 719 -1008 1 -1 18 8 36 22 40 30 123 72 163 82 106 26
243 22 336 -11 l46 -17 149 76 c163 82 351 164 514 223 58 21 106 38 107 39 2
1 -26 89 -62 196 -35 107 -136 417 -225 689 -88 272 -164 502 -168 511 -4 9
-14 14 -22 11z m-179 -413 c47 -23 85 -69 121 -144 32 -68 37 -144 14 -199
l-14 -33 42 -11 c76 -20 121 -63 168 -159 36 -74 43 -97 42 -148 0 -105 -72
-199 -175 -229 -65 -20 -73 -20 -137 -1 -72 22 -115 63 -161 156 -51 102 -58
148 -33 222 l19 57 -39 12 c-61 18 -110 68 -148 150 -60 128 -40 234 57 301
78 55 167 65 244 26z m-550 -255 c72 -22 138 -87 169 -169 32 -82 31 -199 -4
-429 -15 -98 -24 -181 -21 -184 3 -4 62 22 130 56 l125 62 30 -61 c17 -33 30
-65 28 -69 -4 -12 -408 -211 -417 -206 -3 3 -20 32 -36 65 l-29 61 35 207 c53
325 47 458 -25 515 -29 24 -78 22 -110 -3 -21 -17 -26 -29 -26 -65 0 -25 6
-60 14 -78 l14 -33 -64 -31 c-36 -18 -66 -32 -68 -32 -3 0 -14 26 -27 58 -47
123 -19 236 75 300 80 53 123 61 207 36z"/>
<path d="M3245 3698 c-67 -36 -59 -132 18 -215 24 -27 65 -30 106 -8 49 25 55
79 16 155 -35 69 -90 96 -140 68z"/>
<path d="M3435 3308 c-54 -29 -58 -75 -16 -165 45 -94 107 -118 162 -64 36 36
37 66 4 135 -44 94 -94 125 -150 94z"/>
<path d="M1808 3308 c-268 -206 -583 -496 -787 -724 -129 -144 -301 -353 -368
-446 l-32 -45 152 -110 c84 -60 351 -254 594 -430 244 -177 447 -324 451 -327
5 -3 61 58 123 137 63 78 182 212 266 297 l153 155 -7 -50 c-6 -46 -14 -58
-136 -190 -131 -142 -327 -379 -327 -396 0 -5 30 -29 68 -53 37 -24 290 -206
562 -405 l495 -361 189 0 190 0 135 133 c75 73 171 159 214 191 42 32 77 62
77 67 0 5 -86 127 -190 271 l-190 262 22 23 c18 19 24 21 34 11 7 -7 94 -125
194 -263 99 -137 185 -252 191 -253 5 -2 24 7 42 20 125 94 435 255 585 303
49 16 82 32 82 40 0 13 -507 1582 -516 1597 -10 17 -331 -111 -561 -224 l-162
-79 69 -68 c159 -156 204 -389 112 -585 -26 -56 -37 -68 -79 -89 -136 -69
-314 -90 -452 -53 -127 34 -251 113 -333 211 -51 63 -119 201 -125 258 -6 50
20 120 73 194 l33 47 -23 30 c-12 17 -177 244 -365 504 -189 259 -347 472
-351 472 -5 0 -50 -32 -102 -72z m104 -987 c127 -211 232 -391 235 -400 2 -10
-17 -36 -50 -69 -42 -41 -56 -50 -64 -40 -5 7 -108 177 -228 378 -120 201
-223 371 -228 378 -8 10 -36 -12 -121 -97 l-111 -111 -60 60 -60 60 170 170
170 170 58 -58 c47 -46 104 -133 289 -441z m746 -634 c114 -97 256 -157 422
-180 l85 -11 -50 -8 c-65 -11 -165 -1 -240 23 -75 25 -183 97 -227 152 -65 80
-62 86 10 24z"/>
<path d="M1756 993 c-46 -70 -109 -173 -141 -228 -72 -125 -209 -395 -203
-401 3 -2 335 -3 738 -2 l734 3 -509 371 c-281 204 -516 374 -522 378 -9 5
-40 -34 -97 -121z"/>
<path d="M627 1382 c-24 -27 -21 -74 6 -99 30 -29 205 -113 234 -113 56 0 83
78 41 117 -35 32 -204 113 -236 113 -16 0 -36 -8 -45 -18z"/>
</g>
</svg>
